<svg width="1280" xmlns="http://www.w3.org/2000/svg" height="960" xmlns:xlink="http://www.w3.org/1999/xlink"><defs><linearGradient id="k" xlink:href="#a" y1=".09" y2="1.387" x1=".795" x2=".5"/><linearGradient id="j" xlink:href="#b" y1="25.252" y2="4.651" x1="Infinity" x2="Infinity"/><linearGradient id="o" xlink:href="#c" y1="1" x1=".5" x2=".5"/><linearGradient id="i" xlink:href="#d" y2=".655" x1=".774" x2=".742"/><linearGradient id="m" xlink:href="#e" y1="1.639" y2=".5" x1=".326" x2="1"/><linearGradient id="n" xlink:href="#f" y1="1" y2=".262" x1=".382" x2=".5"/><linearGradient id="h" xlink:href="#g" y1=".067" y2=".629" x1=".456" x2=".46"/><linearGradient id="l" xlink:href="#e" y1="13.228" x1="Infinity" x2="Infinity"/><linearGradient id="c"><stop offset="0" stop-color="#e8f6f7"/><stop offset="1" stop-color="#e8f6f7" stop-opacity="0"/></linearGradient><linearGradient id="f"><stop offset="0" stop-color="#e5f5f6"/><stop offset="1" stop-color="#e5f5f6" stop-opacity="0"/></linearGradient><linearGradient id="e"><stop offset="0" stop-color="#187d31"/><stop offset="1" stop-color="#75b652"/></linearGradient><linearGradient id="g"><stop offset="0" stop-color="#a8dde0"/><stop offset="1" stop-color="#a8dde0" stop-opacity="0"/></linearGradient><linearGradient id="b"><stop offset="0" stop-color="#00892c"/><stop offset="1" stop-color="#b1d28f"/></linearGradient><linearGradient id="a"><stop offset="0" stop-color="#77b753"/><stop offset="1" stop-color="#006e29"/></linearGradient><linearGradient id="d"><stop offset="0" stop-color="#d8e8c2"/><stop offset="1" stop-color="#5da854"/></linearGradient></defs><path fill="url(#h)" d="M3.6 1h1278.05v673.052H3.6z"/><path d="M1279.65 444.028c-83.96-53.936-841.945-210.102-1093.83 223.442L1279.655 777.5V444.03z" fill="url(#i)"/><path d="M3.6 439.33c422.294-59.95 800.473 25.247 1095.79 231.284L3.597 739.776V439.33z" fill="url(#j)"/><path d="M898.9 482.137c3.528 9.818 8.72 26.87 13.54 44.06l-1.833.1c-6.097-9.316-14.554-17.273-26.534-20.68 7.43 3.32 13.897 11.426 19.198 21.023-48.693 2.97-95.416 9.57-140.357 20.435 2.6-8.033 5.89-15.108 9.912-19.845-6.133 5.55-10.76 12.364-14.243 19.648-.21-15.608-1.056-29.367-3.083-35.17.05 8.813-.418 22.75-1.17 37.528-1.34.342-2.685.682-4.02 1.032-2.75-8.572-7.197-16.675-14.282-23.087 4.756 5.604 7.683 14.504 9.404 24.365-17.112 4.612-33.928 9.88-50.532 15.817-.027-8.374.826-16.21 3.004-22.35-3.732 7.68-5.832 15.745-6.867 23.725-.193.07-.393.126-.586.197-4.872-13.793-9.745-25.575-13.305-29.817 2.506 7.336 5.905 18.797 9.404 31.29-2.07.772-4.143 1.564-6.205 2.358-4.486-4.464-9.86-7.957-16.35-9.824 4.44 2.065 8.533 6.185 12.214 11.446-150.242 59.05-280.026 176.152-397.975 379.163h1001.43V557.192c-36.342-6.48-71.752-12.093-106.293-16.8 1.415-12.958 4.54-25.36 10.575-32.468-9.423 8.526-14.215 20.033-16.506 31.683-.442-.06-.883-.138-1.326-.197-1.046-18.116-1.74-36.33-1.678-47.007-2.027 5.803-2.832 19.61-3.043 35.22-3.484-7.285-8.15-14.1-14.282-19.65 5.747 6.77 9.997 18.327 12.878 30.603-15.66-2.033-31.134-3.842-46.435-5.452 1.466-12.6 4.576-24.558 10.458-31.486-9.197 8.322-13.993 19.485-16.35 30.847-.505-.05-1.015-.096-1.52-.147-1.022-17.855-1.702-35.7-1.64-46.223-2.027 5.804-2.832 19.612-3.043 35.22-3.484-7.284-8.15-14.1-14.282-19.648 5.653 6.66 9.843 17.96 12.72 30.013-41.87-4.076-82.376-6.377-121.666-6.78 2.74-9.406 6.35-17.844 10.925-23.233-6.133 5.55-10.798 12.364-14.282 19.648-.21-15.608-1.017-29.416-3.044-35.22.053 9.037-.462 23.5-1.25 38.708-1.304-.005-2.6 0-3.9 0-2.76-8.61-7.247-16.748-14.36-23.185 4.572 5.387 7.45 13.83 9.208 23.234-14.394.062-28.627.35-42.69.982-1.41-13.703-1.094-27.676 2.85-37.332-4.455 8.012-6.974 16.465-8.156 24.856-5.315-14.402-10.665-26.794-14.632-31.24z" fill="url(#k)"/><path d="M1.6 615.324c508.38-67.49 859.048-31.742 1147.74 338.226H1.6V615.324z" fill="url(#l)"/><g fill-rule="evenodd"><path d="M1027.006 563.088c-16.21.207-33.317 2.146-47.293 13.41-12.585-.09-25.24-1.61-37.694 1.572-10.146 1.983-20.56 5.873-28.29 14.736-1.58 3.19-1.742 6.36-1.016 9.284-5.327 3.018-9.255 6.512-11.355 10.266-1.917-.07-3.846-.074-5.776.05-10.583.248-21.625 1.652-31.06 8.055-6.844 10.035 6.334 17.718 13.266 17.783 13.34 3.24 27.066 2.896 40.387-.197 12.53 5.506 30.338 8.99 50.103 8.99 11.13 0 21.607-1.11 30.904-3.046 18.415 10.122 39.6 8.823 59.273 6.533 9.456-1.642 19.355-4.55 26.73-12.624 3.873-10.247-5.783-17.122-12.526-18.962-2.253-.757-4.51-1.42-6.79-2.014 2.743-3.243 4.293-6.88 4.293-10.708 0-4.28-1.928-8.316-5.306-11.838 3.102-1.65 6.1-3.65 8.897-6.14 5.028-12.826-8.788-19.806-16.78-21.024-9.77-3.095-19.918-4.026-29.968-4.126z" fill="#382509" fill-opacity=".359"/><path d="M345.43 481.45c-39.558 0-72.733 10.98-81.516 25.69-13.008-3.43-28.078-5.404-44.172-5.404-48.935 0-88.577 18.103-88.577 40.476 0 11.678 10.8 22.227 28.095 29.62-18.733 4.207-31.334 12.04-31.334 21.023 0 1.556.41 3.094 1.132 4.568 87.072-7.57 169.35-11.075 247.392-9.283 13.737-5.95 22.125-13.867 22.125-22.596 0-7.68-6.488-14.79-17.404-20.434 28.386-5.352 47.997-16.854 47.997-30.21 0-18.457-37.473-33.45-83.74-33.45z" opacity=".388" fill="url(#m)"/></g><path d="M468.054 616.226c-.92.075-.554 2.68.347 4.99-2.2-1.18-4.746-2.103-5.94-1.942-1.37.184 1.242 2.358 4.083 3.977-2.742-.02-5.554.313-6.39.95-.955.73 2.924 1.376 6.538 1.48-2.235 1.146-4.238 2.612-4.395 3.483-.18.996 3.493-.127 6.503-1.577-.877 1.876-1.308 3.91-.726 4.682.665.883 2.717-1.582 3.97-4.033.82 1.89 2.13 3.716 3.228 4.093 1.257.43.913-2.433-.067-4.948 2.2 1.182 4.747 2.105 5.942 1.943 1.368-.184-1.248-2.358-4.09-3.977 2.744.023 5.56-.31 6.395-.95.956-.73-2.923-1.375-6.538-1.48 2.236-1.145 4.235-2.61 4.392-3.48.18-.998-3.488.125-6.498 1.575.877-1.875 1.308-3.91.726-4.68-.666-.883-2.717 1.582-3.97 4.032-.82-1.89-2.135-3.72-3.233-4.095-.104-.036-.195-.048-.276-.04z" fill="#eeeeec"/><path d="M476.7 623.957a4.393 3.098 0 1 1-8.786 0 4.393 3.098 0 1 1 8.785 0z" fill="#fd0" fill-rule="evenodd"/><path d="M263.272 650.806c-.92.075-.554 2.68.347 4.99-2.2-1.18-4.748-2.103-5.943-1.942-1.368.184 1.243 2.358 4.084 3.977-2.74-.02-5.553.313-6.388.95-.956.73 2.923 1.376 6.537 1.48-2.237 1.146-4.24 2.612-4.397 3.483-.18.996 3.493-.127 6.503-1.577-.877 1.876-1.308 3.91-.726 4.682.665.883 2.717-1.582 3.97-4.033.82 1.89 2.13 3.716 3.228 4.093 1.257.43.913-2.433-.067-4.948 2.2 1.182 4.748 2.105 5.943 1.943 1.368-.184-1.248-2.358-4.09-3.977 2.744.023 5.56-.31 6.395-.95.956-.73-2.923-1.375-6.538-1.48 2.236-1.145 4.235-2.61 4.392-3.48.18-.998-3.488.125-6.498 1.575.877-1.875 1.308-3.91.726-4.68-.666-.883-2.717 1.582-3.97 4.032-.82-1.89-2.135-3.72-3.233-4.095-.103-.036-.194-.048-.275-.04z" fill="#eeeeec"/><path d="M271.917 658.537a4.393 3.098 0 1 1-8.785 0 4.393 3.098 0 1 1 8.785 0z" fill="#fd0" fill-rule="evenodd"/><path d="M873.843 562.49c-.775.064-.466 2.256.29 4.2-1.85-.995-3.992-1.77-4.997-1.636-1.15.156 1.046 1.984 3.435 3.346-2.305-.02-4.67.262-5.373.8-.804.613 2.46 1.156 5.5 1.244-1.882.963-3.566 2.197-3.698 2.93-.153.838 2.936-.107 5.468-1.328-.737 1.58-1.1 3.29-.61 3.94.56.742 2.285-1.332 3.34-3.393.688 1.59 1.79 3.125 2.715 3.442 1.057.363.768-2.046-.056-4.162 1.85.995 3.993 1.77 4.998 1.635 1.15-.155-1.05-1.984-3.44-3.345 2.308.02 4.676-.263 5.38-.8.803-.613-2.46-1.157-5.5-1.244 1.88-.965 3.56-2.198 3.693-2.93.152-.84-2.934.106-5.465 1.326.737-1.578 1.1-3.29.61-3.94-.56-.74-2.285 1.332-3.34 3.394-.688-1.59-1.795-3.128-2.72-3.445-.085-.03-.162-.04-.23-.034z" fill="#eeeeec"/><path d="M881.115 568.994a3.695 2.606 0 1 1-7.39 0 3.695 2.606 0 1 1 7.39 0z" fill="#fd0" fill-rule="evenodd"/><path d="M937.525 666.23c-.775.064-.466 2.256.29 4.2-1.85-.995-3.992-1.77-4.997-1.636-1.15.156 1.046 1.984 3.435 3.346-2.306-.02-4.67.262-5.374.8-.805.613 2.458 1.156 5.498 1.244-1.88.963-3.565 2.197-3.697 2.93-.15.838 2.938-.107 5.47-1.328-.737 1.58-1.1 3.29-.61 3.94.56.742 2.285-1.332 3.34-3.393.688 1.59 1.79 3.125 2.715 3.442 1.057.363.768-2.046-.056-4.162 1.85.995 3.992 1.77 4.997 1.635 1.15-.155-1.05-1.984-3.44-3.345 2.308.02 4.676-.263 5.38-.8.803-.613-2.46-1.157-5.5-1.244 1.88-.965 3.56-2.198 3.693-2.93.152-.84-2.934.106-5.465 1.326.737-1.578 1.1-3.29.61-3.94-.56-.74-2.285 1.332-3.34 3.394-.688-1.59-1.795-3.128-2.72-3.445-.085-.03-.162-.04-.23-.034z" fill="#eeeeec"/><path d="M944.797 672.734a3.695 2.606 0 1 1-7.39 0 3.695 2.606 0 1 1 7.39 0z" fill="#fd0" fill-rule="evenodd"/><path d="M535.954 482.31c-.597.05-.36 1.74.225 3.236-1.427-.766-3.08-1.364-3.854-1.26-.887.12.806 1.53 2.648 2.58-1.778-.015-3.6.202-4.143.615-.62.474 1.897.893 4.24.96-1.45.743-2.748 1.694-2.85 2.26-.116.645 2.265-.084 4.216-1.024-.568 1.216-.848 2.536-.47 3.036.43.572 1.76-1.026 2.574-2.615.53 1.226 1.38 2.41 2.093 2.654.815.28.592-1.577-.044-3.207 1.426.766 3.077 1.364 3.852 1.26.887-.12-.81-1.53-2.65-2.58 1.778.016 3.603-.2 4.145-.615.62-.473-1.896-.892-4.24-.96 1.45-.742 2.746-1.693 2.848-2.257.117-.646-2.26.083-4.213 1.023.57-1.216.848-2.536.47-3.036-.43-.572-1.76 1.026-2.574 2.615-.53-1.226-1.384-2.41-2.096-2.655-.066-.023-.125-.03-.178-.027z" fill="#eeeeec"/><path d="M541.56 487.323a2.848 2.01 0 1 1-5.697 0 2.848 2.01 0 1 1 5.696 0z" fill="#fd0" fill-rule="evenodd"/><path d="M236.273 435.15c-.597.05-.36 1.74.225 3.236-1.426-.766-3.078-1.364-3.853-1.26-.887.12.806 1.53 2.648 2.58-1.778-.015-3.6.202-4.143.615-.62.474 1.896.893 4.24.96-1.45.743-2.75 1.694-2.85 2.26-.117.645 2.264-.084 4.215-1.024-.568 1.216-.848 2.536-.47 3.036.43.572 1.76-1.026 2.574-2.615.53 1.226 1.38 2.41 2.092 2.654.815.28.592-1.577-.044-3.207 1.427.766 3.078 1.364 3.853 1.26.888-.12-.808-1.53-2.65-2.58 1.78.016 3.604-.2 4.146-.615.62-.473-1.896-.892-4.24-.96 1.45-.742 2.746-1.693 2.848-2.257.117-.646-2.26.083-4.213 1.023.57-1.216.85-2.536.472-3.036-.432-.572-1.762 1.026-2.575 2.615-.53-1.226-1.384-2.41-2.096-2.655-.065-.023-.124-.03-.177-.027z" fill="#eeeeec"/><path d="M241.878 440.163a2.848 2.01 0 1 1-5.696 0 2.848 2.01 0 1 1 5.696 0z" fill="#fd0" fill-rule="evenodd"/><path d="M498.493 557.76c-.597.05-.36 1.74.225 3.236-1.426-.766-3.078-1.364-3.853-1.26-.887.12.806 1.53 2.648 2.58-1.778-.015-3.6.202-4.143.615-.62.474 1.896.893 4.24.96-1.45.743-2.75 1.694-2.85 2.26-.117.645 2.264-.084 4.215-1.024-.568 1.216-.848 2.536-.47 3.036.43.572 1.76-1.026 2.574-2.615.53 1.226 1.38 2.41 2.092 2.654.815.28.592-1.577-.044-3.207 1.427.766 3.078 1.364 3.853 1.26.888-.12-.808-1.53-2.65-2.58 1.78.016 3.604-.2 4.146-.615.62-.473-1.896-.892-4.24-.96 1.45-.742 2.746-1.693 2.848-2.257.117-.646-2.26.083-4.213 1.023.57-1.216.85-2.536.472-3.036-.432-.572-1.762 1.026-2.575 2.615-.53-1.226-1.384-2.41-2.096-2.655-.065-.023-.124-.03-.177-.027z" fill="#eeeeec"/><path d="M504.098 562.773a2.848 2.01 0 1 1-5.696 0 2.848 2.01 0 1 1 5.696 0z" fill="#fd0" fill-rule="evenodd"/><path d="M573.413 526.32c-.596.05-.358 1.74.225 3.236-1.426-.766-3.078-1.364-3.852-1.26-.887.12.806 1.53 2.648 2.58-1.778-.015-3.6.202-4.143.615-.62.474 1.897.893 4.24.96-1.45.743-2.75 1.694-2.85 2.26-.117.645 2.264-.084 4.216-1.024-.57 1.216-.848 2.536-.47 3.036.43.572 1.76-1.026 2.574-2.615.53 1.226 1.38 2.41 2.093 2.654.814.28.59-1.577-.044-3.207 1.425.766 3.077 1.364 3.852 1.26.887-.12-.81-1.53-2.65-2.58 1.777.016 3.602-.2 4.144-.615.62-.473-1.895-.892-4.24-.96 1.45-.742 2.747-1.693 2.85-2.257.115-.646-2.263.083-4.214 1.023.568-1.216.848-2.536.47-3.036-.43-.572-1.76 1.026-2.575 2.615-.53-1.226-1.383-2.41-2.095-2.655-.067-.023-.126-.03-.18-.027z" fill="#eeeeec"/><path d="M579.02 531.333a2.848 2.01 0 1 1-5.697 0 2.848 2.01 0 1 1 5.696 0z" fill="#fd0" fill-rule="evenodd"/><g><path d="M398.6 526.32c-.597.05-.36 1.74.225 3.236-1.426-.766-3.078-1.364-3.853-1.26-.887.12.806 1.53 2.648 2.58-1.778-.015-3.6.202-4.143.615-.62.474 1.896.893 4.24.96-1.45.743-2.75 1.694-2.85 2.26-.117.645 2.264-.084 4.215-1.024-.568 1.216-.848 2.536-.47 3.036.43.572 1.76-1.026 2.574-2.615.53 1.226 1.38 2.41 2.093 2.654.814.28.59-1.577-.045-3.207 1.427.766 3.078 1.364 3.853 1.26.887-.12-.81-1.53-2.65-2.58 1.778.016 3.603-.2 4.145-.615.62-.473-1.896-.892-4.24-.96 1.45-.742 2.746-1.693 2.848-2.257.118-.646-2.26.083-4.212 1.023.57-1.216.848-2.536.47-3.036-.43-.572-1.76 1.026-2.574 2.615-.53-1.226-1.384-2.41-2.096-2.655-.066-.023-.125-.03-.178-.027z" fill="#eeeeec"/><path d="M404.205 531.333a2.848 2.01 0 1 1-5.696 0 2.848 2.01 0 1 1 5.695 0z" fill="#fd0" fill-rule="evenodd"/></g><g><path d="M121.396 557.76c-.597.05-.36 1.74.225 3.236-1.425-.766-3.077-1.364-3.852-1.26-.887.12.806 1.53 2.648 2.58-1.778-.015-3.6.202-4.143.615-.62.474 1.896.893 4.24.96-1.45.743-2.75 1.694-2.85 2.26-.117.645 2.264-.084 4.215-1.024-.568 1.216-.848 2.536-.47 3.036.43.572 1.76-1.026 2.574-2.615.53 1.226 1.38 2.41 2.093 2.654.815.28.592-1.577-.044-3.207 1.428.766 3.08 1.364 3.854 1.26.887-.12-.81-1.53-2.65-2.58 1.778.016 3.603-.2 4.145-.615.62-.473-1.897-.892-4.24-.96 1.45-.742 2.745-1.693 2.847-2.257.117-.646-2.26.083-4.213 1.023.57-1.216.848-2.536.47-3.036-.43-.572-1.76 1.026-2.574 2.615-.53-1.226-1.384-2.41-2.096-2.655-.066-.023-.125-.03-.178-.027z" fill="#eeeeec"/><path d="M127 562.773a2.848 2.01 0 1 1-5.695 0 2.848 2.01 0 1 1 5.696 0z" fill="#fd0" fill-rule="evenodd"/></g><g><path d="M96.422 494.88c-.597.05-.36 1.74.225 3.236-1.426-.766-3.078-1.364-3.853-1.26-.887.12.806 1.53 2.648 2.58-1.778-.015-3.6.202-4.143.615-.62.474 1.895.893 4.238.96-1.45.743-2.748 1.694-2.85 2.26-.116.645 2.265-.084 4.216-1.024-.568 1.216-.848 2.536-.47 3.036.43.572 1.76-1.026 2.574-2.615.53 1.226 1.38 2.41 2.093 2.654.816.28.593-1.577-.043-3.207 1.427.766 3.078 1.364 3.853 1.26.887-.12-.81-1.53-2.65-2.58 1.778.016 3.603-.2 4.145-.615.62-.473-1.896-.892-4.24-.96 1.45-.742 2.746-1.693 2.848-2.257.117-.646-2.26.083-4.213 1.023.57-1.216.848-2.536.47-3.036-.43-.572-1.76 1.026-2.574 2.615-.53-1.226-1.384-2.41-2.096-2.655-.066-.023-.125-.03-.178-.027z" fill="#eeeeec"/><path d="M102.027 499.893a2.848 2.01 0 1 1-5.696 0 2.848 2.01 0 1 1 5.697 0z" fill="#fd0" fill-rule="evenodd"/></g><g><path d="M820.65 494.88c-.597.05-.36 1.74.225 3.236-1.426-.766-3.078-1.364-3.853-1.26-.887.12.806 1.53 2.648 2.58-1.778-.015-3.6.202-4.143.615-.62.474 1.896.893 4.24.96-1.45.743-2.75 1.694-2.85 2.26-.117.645 2.264-.084 4.215-1.024-.568 1.216-.848 2.536-.47 3.036.43.572 1.76-1.026 2.574-2.615.53 1.226 1.38 2.41 2.093 2.654.814.28.59-1.577-.045-3.207 1.427.766 3.078 1.364 3.853 1.26.887-.12-.81-1.53-2.65-2.58 1.778.016 3.603-.2 4.145-.615.62-.473-1.896-.892-4.24-.96 1.45-.742 2.746-1.693 2.848-2.257.118-.646-2.26.083-4.212 1.023.57-1.216.848-2.536.47-3.036-.43-.572-1.76 1.026-2.574 2.615-.53-1.226-1.384-2.41-2.096-2.655-.066-.023-.125-.03-.178-.027z" fill="#eeeeec"/><path d="M826.255 499.893a2.848 2.01 0 1 1-5.696 0 2.848 2.01 0 1 1 5.695 0z" fill="#fd0" fill-rule="evenodd"/></g><g><path d="M895.57 431.99c-.597.034-.36 1.22.225 2.274-1.426-.54-3.078-.96-3.853-.886-.887.085.806 1.075 2.648 1.813-1.778-.01-3.6.143-4.143.433-.62.333 1.896.627 4.24.674-1.45.522-2.75 1.19-2.85 1.587-.117.454 2.264-.058 4.215-.72-.568.856-.848 1.783-.47 2.135.43.4 1.76-.722 2.574-1.84.53.862 1.38 1.694 2.093 1.866.814.196.59-1.108-.045-2.254 1.427.538 3.078.958 3.853.885.887-.084-.81-1.074-2.65-1.812 1.778.01 3.603-.142 4.145-.433.62-.332-1.896-.626-4.24-.674 1.45-.522 2.746-1.19 2.848-1.586.118-.454-2.26.057-4.212.718.57-.855.848-1.782.47-2.133-.43-.402-1.76.72-2.574 1.837-.53-.86-1.384-1.694-2.096-1.866-.066-.016-.125-.02-.178-.018z" fill="#eeeeec"/><path d="M901.175 435.512a2.848 1.412 0 1 1-5.696 0 2.848 1.412 0 1 1 5.695 0z" fill="#fd0" fill-rule="evenodd"/></g><g fill="#304e15"><path d="M171.79 716.614c-1.075-.364-3.08 6.698-4.23 13.308-1.31-4.44-3.24-8.412-4.693-8.716-1.664-.35-.82 6.947.786 12.924-2.972-1.728-6.35-2.562-7.852-1.397-1.717 1.333 1.922 5.39 5.772 7.863-3.5 1.645-7.04 4.274-8.015 6.463-1.116 2.505 3.93 1.793 8.555-.182-2.69 4.39-5.04 9.47-5.117 11.847-.088 2.72 4.428-2.5 8.06-8.167-.853 5.458-1.107 11.047-.256 12.705.973 1.897 3.242-5.828 4.495-13.025 1.31 4.44 3.24 8.412 4.692 8.717 1.664.348.816-6.95-.79-12.926 2.973 1.73 6.354 2.563 7.856 1.398 1.718-1.333-1.92-5.39-5.77-7.864 3.5-1.645 7.034-4.276 8.01-6.465 1.116-2.507-3.925-1.793-8.55.182 2.69-4.39 5.04-9.47 5.116-11.847.087-2.72-4.43 2.5-8.06 8.167.852-5.458 1.103-11.058.252-12.715-.08-.155-.167-.24-.262-.273z"/><path d="M174.09 742.166a5.36 8.7 13.195 1 1-9.592-5.348 5.36 8.7 13.195 1 1 9.59 5.348z" fill-rule="evenodd"/></g><g fill-rule="evenodd"><g fill="#f6fbfc"><path d="M290.522 162.18a71.518 68.912 0 1 1-143.037 0 71.518 68.912 0 1 1 143.037 0z"/><path d="M405.304 191.077a81.23 62.243 0 1 1-162.46 0 81.23 62.243 0 1 1 162.46 0z"/><path d="M513.023 151.064a138.622 73.358 0 1 1-277.244 0 138.622 73.358 0 1 1 277.243 0z"/><path d="M361.157 91.044a68.87 48.905 0 1 1-137.74 0 68.87 48.905 0 1 1 137.74 0z"/><path d="M445.92 106.605a45.03 42.236 0 1 1-90.06 0 45.03 42.236 0 1 1 90.06 0z"/></g><path d="M293.21 75.492c-32.713 0-59.234 17.032-59.234 38.07 0 .62.022 1.263.067 1.875-1.28-.07-2.558-.114-3.86-.114-33.97 0-61.515 24.036-61.515 53.68 0 29.647 27.545 53.645 61.516 53.645 10.878 0 21.103-2.45 29.97-6.773 12.106 14.416 34.63 24.105 60.407 24.105 25.138 0 47.163-9.207 59.47-23.033 58.175-3.79 103.028-27.706 103.028-56.628 0-21.685-25.19-40.558-62.32-50.24-6.542-10.302-19.385-17.294-34.13-17.294-11.187 0-21.256 4.042-28.326 10.484-2.66.06-5.31.166-7.92.306-6.835-16.182-29.826-28.084-57.153-28.084z" fill="url(#n)"/><path d="M1065.508 32.436c-20.813 0-38.944 13.35-48.358 33.08-1.71-.244-3.464-.363-5.245-.363-17.544 0-32.088 12.18-34.754 28.115-20.5 4.95-35.092 17.654-35.092 32.546 0 17.072 19.176 31.25 44.45 34.187.808 17.766 16.223 31.93 35.143 31.93 12.633 0 23.707-6.32 29.916-15.806 10.163 7.208 24.533 11.715 40.473 11.715 18.998 0 35.766-6.393 45.836-16.146 8.52 4.178 18.608 6.603 29.424 6.603 30.502 0 55.228-19.225 55.228-42.94 0-23.716-24.726-42.94-55.228-42.94-4.095 0-8.087.343-11.93 1-.188-20.16-16.1-36.443-35.717-36.443-3.38 0-6.647.502-9.746 1.405-10.063-15.744-26.207-25.944-44.4-25.944z" fill="#f6fbfc"/><path d="M1072.118 57.46c-17.548 0-32.834 11.257-40.77 27.89-1.443-.205-2.92-.306-4.423-.306-14.792 0-27.053 10.268-29.3 23.704-17.285 4.174-29.588 14.885-29.588 27.44 0 14.393 16.168 26.347 37.475 28.822.682 14.978 13.68 26.92 29.63 26.92 10.65 0 19.987-5.33 25.22-13.326 8.57 6.077 20.685 9.877 34.124 9.877 16.018 0 30.155-5.388 38.645-13.61 7.183 3.522 15.69 5.566 24.808 5.566 25.716 0 46.562-16.21 46.562-36.203 0-19.994-20.846-36.203-46.562-36.203-3.453 0-6.818.29-10.057.844-.16-16.996-13.573-30.726-30.113-30.726-2.85 0-5.604.424-8.217 1.186-8.484-13.274-22.095-21.873-37.432-21.873z" fill="url(#o)"/></g></svg>