<svg width="1280" xmlns="http://www.w3.org/2000/svg" height="960" xmlns:xlink="http://www.w3.org/1999/xlink">
<defs>
<linearGradient id="linearGradient7788" xlink:href="#linearGradient7782" y1="0.090477" y2="1.38679" x1="0.795495" x2="0.499984"/>
<linearGradient id="linearGradient7792" xlink:href="#linearGradient7794" y1="25.251933" y2="4.651054" x1="Infinity" x2="Infinity"/>
<linearGradient id="linearGradient4709" xlink:href="#linearGradient4703" y1="1.000001" y2="0.000001" x1="0.5" x2="0.5"/>
<linearGradient id="linearGradient7810" xlink:href="#linearGradient7804" y1="0" y2="0.65507" x1="0.773559" x2="0.741596"/>
<linearGradient id="linearGradient7990" xlink:href="#linearGradient7776" y1="1.638501" y2="0.5" x1="0.325907" x2="1"/>
<linearGradient id="linearGradient4676" xlink:href="#linearGradient4670" y1="1" y2="0.261864" x1="0.382463" x2="0.5"/>
<linearGradient id="linearGradient7841" xlink:href="#linearGradient7835" y1="0.06701" y2="0.628866" x1="0.456117" x2="0.46009"/>
<linearGradient id="linearGradient7774" xlink:href="#linearGradient7776" y1="13.22791" y2="0.000005" x1="Infinity" x2="Infinity"/>
<linearGradient id="linearGradient4703">
<stop offset="0" style="stop-color:#e8f6f7" id="stop4705"/>
<stop offset="1" style="stop-color:#e8f6f7;stop-opacity:0" id="stop4707"/>
</linearGradient>
<linearGradient id="linearGradient4670">
<stop offset="0" style="stop-color:#e5f5f6" id="stop4672"/>
<stop offset="1" style="stop-color:#e5f5f6;stop-opacity:0" id="stop4674"/>
</linearGradient>
<linearGradient id="linearGradient7776">
<stop offset="0" style="stop-color:#187d31" id="stop7778"/>
<stop offset="1" style="stop-color:#75b652" id="stop7780"/>
</linearGradient>
<linearGradient id="linearGradient7835">
<stop offset="0" style="stop-color:#a8dde0" id="stop7837"/>
<stop offset="1" style="stop-color:#a8dde0;stop-opacity:0" id="stop7839"/>
</linearGradient>
<linearGradient id="linearGradient7794">
<stop offset="0" style="stop-color:#00892c" id="stop7796"/>
<stop offset="1" style="stop-color:#b1d28f" id="stop7798"/>
</linearGradient>
<linearGradient id="linearGradient7782">
<stop offset="0" style="stop-color:#77b753" id="stop7784"/>
<stop offset="1" style="stop-color:#006e29" id="stop7786"/>
</linearGradient>
<linearGradient id="linearGradient7804">
<stop offset="0" style="stop-color:#d8e8c2" id="stop7806"/>
<stop offset="1" style="stop-color:#5da854" id="stop7808"/>
</linearGradient>
</defs>
<g>
<rect width="1278.051319" x="3.599273" y="0.999973" height="673.051872" style="fill:url(#linearGradient7841)" id="rect7833"/>
<path style="fill:url(#linearGradient7810)" id="path7800" d="m 1279.6505,444.0283 c -83.9602,-53.9361 -841.945,-210.102 -1093.83,223.442 l 1093.8335,110.0307 v -333.473 z "/>
<path style="fill:url(#linearGradient7792)" id="path7790" d="m 3.5993,439.3293 c 422.295,-59.9503 800.474,25.2473 1095.79,231.285 l -1095.7908,69.1621 v -300.447 z "/>
<path style="fill:url(#linearGradient7788)" id="path7772" d="m 898.9008,482.1369 c 3.52685,9.81793 8.71979,26.8709 13.5403,44.0614 -0.611328,0.031372 -1.22327,0.065613 -1.83398,0.098206 -6.0968,-9.31543 -14.5541,-17.2727 -26.5342,-20.6798 7.43133,3.31995 13.8969,11.426 19.1982,21.0237 -48.6946,2.96881 -95.4174,9.56897 -140.358,20.4342 2.59912,-8.03284 5.89032,-15.1078 9.91138,-19.8448 -6.1322,5.54907 -10.7587,12.364 -14.2427,19.6484 -0.211121,-15.6081 -1.05573,-29.3668 -3.0827,-35.1705 0.052307,8.81335 -0.417358,22.7503 -1.17047,37.5283 -1.33862,0.341736 -2.6839,0.682129 -4.01923,1.03156 -2.74976,-8.57135 -7.19592,-16.675 -14.2816,-23.0868 4.75604,5.60309 7.68274,14.5033 9.40399,24.364 -17.1122,4.61176 -33.9276,9.88117 -50.532,15.8169 -0.026428,-8.37384 0.826294,-16.2082 3.0047,-22.3499 -3.73242,7.68133 -5.83282,15.7449 -6.8678,23.7252 -0.192871,0.070435 -0.392395,0.125977 -0.585266,0.196594 -4.87323,-13.7925 -9.74628,-25.5744 -13.306,-29.8164 2.50555,7.33624 5.90448,18.7968 9.40399,31.29 -2.06958,0.772217 -4.14264,1.56403 -6.20441,2.35791 -4.48602,-4.46375 -9.85992,-7.95746 -16.3497,-9.82428 4.44049,2.06372 8.53259,6.18463 12.2136,11.4452 -150.241,59.049 -280.025,176.152 -397.974,379.163 h 1001.43 v -396.356 c -36.3424,-6.47961 -71.7521,-12.0927 -106.293,-16.7994 1.41553,-12.959 4.54102,-25.3605 10.5751,-32.4688 -9.42334,8.52649 -14.2147,20.0333 -16.5061,31.6829 -0.442627,-0.059082 -0.884277,-0.137695 -1.32678,-0.196533 -1.04578,-18.1168 -1.74097,-36.3317 -1.67786,-47.0085 -2.02698,5.80383 -2.83252,19.6116 -3.0437,35.2197 -3.48389,-7.28442 -8.14941,-14.0995 -14.2816,-19.6484 5.74646,6.76965 9.99646,18.3262 12.877,30.6024 -15.6592,-2.03314 -31.1343,-3.84186 -46.4349,-5.45239 1.46545,-12.6013 4.57617,-24.5576 10.4578,-31.4864 -9.19788,8.32275 -13.9941,19.4856 -16.3499,30.8478 -0.506104,-0.051575 -1.01599,-0.096252 -1.52173,-0.147278 -1.02075,-17.8547 -1.70117,-35.7011 -1.63892,-46.2227 -2.02698,5.80383 -2.83252,19.6116 -3.04358,35.2197 -3.48413,-7.28449 -8.14941,-14.0995 -14.2816,-19.6483 5.65295,6.65967 9.84314,17.9597 12.7206,30.0128 -41.8695,-4.07605 -82.377,-6.37707 -121.667,-6.77863 2.74219,-9.40717 6.35107,-17.8445 10.926,-23.2341 -6.13238,5.54883 -10.7977,12.3638 -14.2817,19.6483 -0.21106,-15.608 -1.01666,-29.4158 -3.04364,-35.2197 0.05365,9.03686 -0.46167,23.501 -1.24872,38.7072 -1.30432,-0.0047 -2.60046,0.000305 -3.90204,0 -2.75842,-8.60999 -7.2453,-16.7474 -14.3597,-23.1849 4.57294,5.38696 7.4519,13.8288 9.20904,23.2342 -14.3937,0.0625 -28.6271,0.350708 -42.6889,0.982239 -1.41132,-13.7035 -1.09503,-27.6758 2.84857,-37.3317 -4.45514,8.01196 -6.97388,16.4644 -8.15533,24.8551 -5.31488,-14.4019 -10.6651,-26.7933 -14.6328,-31.2409 v -6.1e-05 z "/>
<path style="fill:url(#linearGradient7774)" id="rect7769" d="m 1.5993,615.324 c 508.381,-67.4886 859.049,-31.7416 1147.74,338.226 h -1147.74 v -338.226 z "/>
<g style="fill-rule:evenodd">
<path style="fill:#382509;fill-opacity:.359" id="path7904" d="m 1027.0062,563.088 c -16.2102,0.207275 -33.3172,2.1463 -47.2932,13.41 -12.5849,-0.090881 -25.2402,-1.60876 -37.6942,1.57184 -10.1453,1.98285 -20.5585,5.87274 -28.2902,14.7361 -1.57849,3.1897 -1.74066,6.3587 -1.01459,9.284 -5.32672,3.01837 -9.25519,6.5116 -11.355,10.2662 -1.91626,-0.070557 -3.8454,-0.074097 -5.77508,0.049133 -10.5827,0.249084 -21.6246,1.65259 -31.0605,8.05573 -6.84387,10.0338 6.33484,17.7169 13.267,17.7817 13.3394,3.23944 27.066,2.8963 40.3867,-0.196411 12.53,5.50586 30.3378,8.98901 50.1028,8.98901 11.1301,0 21.6066,-1.10919 30.9045,-3.04547 18.4148,10.1217 39.601,8.82281 59.2727,6.53314 9.4563,-1.6416 19.3552,-4.55066 26.7295,-12.6241 3.87305,-10.2454 -5.78296,-17.121 -12.5259,-18.9606 -2.25354,-0.757141 -4.50952,-1.41956 -6.78955,-2.01398 2.74133,-3.24365 4.29211,-6.88007 4.29211,-10.7083 0,-4.2796 -1.92871,-8.3161 -5.30676,-11.8381 3.1029,-1.64984 6.09961,-3.65112 8.89697,-6.14014 5.02832,-12.8254 -8.78796,-19.8062 -16.7792,-21.0237 -9.77161,-3.09503 -19.9187,-4.02643 -29.9681,-4.12616 v 0.000122 z "/>
<path style="opacity:.388;fill:url(#linearGradient7990)" id="path7971" d="m 345.4286,481.4492 c -39.5569,0 -72.7313,10.9822 -81.5146,25.6902 -13.0079,-3.42895 -28.0778,-5.40326 -44.1716,-5.40326 -48.9351,0 -88.5774,18.1033 -88.5774,40.4755 0,11.6785 10.8007,22.2271 28.095,29.6199 -18.7332,4.20709 -31.3338,12.0407 -31.3338,21.0236 0,1.55627 0.409073,3.09344 1.13162,4.56824 87.0726,-7.56958 169.35,-11.0757 247.392,-9.28381 13.7368,-5.95062 22.1248,-13.8661 22.1248,-22.5955 0,-7.67987 -6.4874,-14.7906 -17.4033,-20.4343 28.3848,-5.35132 47.9956,-16.8537 47.9956,-30.2093 0,-18.4572 -37.4729,-33.4513 -83.7388,-33.4513 z "/>
</g>
<g id="g8028" transform="matrix(0.145431 0 0 0.105024 -200.634 1192.16)">
<path style="fill:#eeeeec" id="path8030" d="m 4597.9731,-5483.8306 c -6.33057,0.714355 -3.80518,25.5244 2.38428,47.5205 -15.124,-11.252 -32.6396,-20.0376 -40.856,-18.5024 -9.40625,1.75732 8.55127,22.457 28.0811,37.8706 -18.8511,-0.214355 -38.186,2.96924 -43.9316,9.04102 -6.57471,6.94824 20.1021,13.0977 44.9541,14.0918 -15.376,10.9072 -29.1479,24.8682 -30.2271,33.1572 -1.23584,9.48926 24.0151,-1.20654 44.7095,-15.0176 -6.0293,17.8628 -8.99121,37.2446 -4.9917,44.5854 4.57715,8.40137 18.6831,-15.0698 27.3076,-38.4028 5.62109,17.999 14.6387,35.3794 22.1904,38.9688 8.6416,4.10645 6.27637,-23.1621 -0.460938,-47.1084 15.1235,11.252 32.6392,20.0376 40.856,18.5024 9.4082,-1.75781 -8.57861,-22.4531 -28.1128,-37.8677 18.8613,0.218262 38.2144,-2.96875 43.9634,-9.04443 6.57471,-6.94775 -20.1021,-13.0977 -44.9546,-14.0918 15.3765,-10.9062 29.1172,-24.8647 30.1963,-33.1538 1.23535,-9.48926 -23.9844,1.20312 -44.6787,15.0146 6.02978,-17.8628 8.99121,-37.2446 4.99219,-44.5854 -4.57715,-8.40137 -18.6836,15.0698 -27.3076,38.4028 -5.62109,-17.9985 -14.6729,-35.4077 -22.2246,-38.9966 -0.704102,-0.334473 -1.32812,-0.447754 -1.88916,-0.384277 z "/>
<path style="fill:#fd0;fill-rule:evenodd;stroke-width:1.34" id="path8032" d="m 4657.4185,-5410.2178 a 30.2041,29.5 0 1,1 -60.4087,0 30.2041,29.5 0 1,1 60.4087,0 z "/>
</g>
<g id="g8034" transform="matrix(0.145431 0 0 0.105024 -405.416 1226.74)">
<path style="fill:#eeeeec" id="path8036" d="m 4597.9731,-5483.8306 c -6.33057,0.714355 -3.80518,25.5244 2.38428,47.5205 -15.124,-11.252 -32.6396,-20.0376 -40.856,-18.5024 -9.40625,1.75732 8.55127,22.457 28.0811,37.8706 -18.8511,-0.214355 -38.186,2.96924 -43.9316,9.04102 -6.57471,6.94824 20.1021,13.0977 44.9541,14.0918 -15.376,10.9072 -29.1479,24.8682 -30.2271,33.1572 -1.23584,9.48926 24.0151,-1.20654 44.7095,-15.0176 -6.0293,17.8628 -8.99121,37.2446 -4.9917,44.5854 4.57715,8.40137 18.6831,-15.0698 27.3076,-38.4028 5.62109,17.999 14.6387,35.3794 22.1904,38.9688 8.6416,4.10645 6.27637,-23.1621 -0.460938,-47.1084 15.1235,11.252 32.6392,20.0376 40.856,18.5024 9.4082,-1.75781 -8.57861,-22.4531 -28.1128,-37.8677 18.8613,0.218262 38.2144,-2.96875 43.9634,-9.04443 6.57471,-6.94775 -20.1021,-13.0977 -44.9546,-14.0918 15.3765,-10.9062 29.1172,-24.8647 30.1963,-33.1538 1.23535,-9.48926 -23.9844,1.20312 -44.6787,15.0146 6.02978,-17.8628 8.99121,-37.2446 4.99219,-44.5854 -4.57715,-8.40137 -18.6836,15.0698 -27.3076,38.4028 -5.62109,-17.9985 -14.6729,-35.4077 -22.2246,-38.9966 -0.704102,-0.334473 -1.32812,-0.447754 -1.88916,-0.384277 z "/>
<path style="fill:#fd0;fill-rule:evenodd;stroke-width:1.34" id="path8038" d="m 4657.4185,-5410.2178 a 30.2041,29.5 0 1,1 -60.4087,0 30.2041,29.5 0 1,1 60.4087,0 z "/>
</g>
<g id="g8040" transform="matrix(0.122338 0 0 0.0883474 210.441 1158.86)">
<path style="fill:#eeeeec" id="path8042" d="m 5422.6938,-6750.2764 c -6.33057,0.714355 -3.80469,25.5239 2.38379,47.5205 -15.123,-11.252 -32.6392,-20.0376 -40.8555,-18.5024 -9.40674,1.75732 8.55127,22.457 28.0811,37.8706 -18.8511,-0.214355 -38.186,2.96924 -43.9316,9.0415 -6.57422,6.94775 20.1021,13.0972 44.9541,14.0913 -15.3765,10.9067 -29.1479,24.8682 -30.2271,33.1572 -1.23584,9.48926 24.0151,-1.20654 44.7095,-15.0171 -6.0293,17.8623 -8.99121,37.2441 -4.99219,44.585 4.57764,8.40137 18.6836,-15.0698 27.3081,-38.4028 5.62109,17.9985 14.6382,35.3794 22.1904,38.9683 8.6416,4.10645 6.27637,-23.1616 -0.461426,-47.1079 15.124,11.252 32.6396,20.0376 40.856,18.5024 9.4082,-1.75732 -8.57861,-22.4531 -28.1123,-37.8677 18.8613,0.218262 38.2144,-2.96875 43.9634,-9.04443 6.57422,-6.94775 -20.1025,-13.0977 -44.9546,-14.0918 15.3765,-10.9062 29.1172,-24.8647 30.1963,-33.1538 1.23584,-9.48926 -23.9839,1.20312 -44.6782,15.0146 6.0293,-17.8628 8.99121,-37.2441 4.9917,-44.5854 -4.57764,-8.40137 -18.6831,15.0698 -27.3076,38.4028 -5.62158,-17.999 -14.6729,-35.4077 -22.2246,-38.9966 -0.704102,-0.334473 -1.32764,-0.447754 -1.88916,-0.384277 z "/>
<path style="fill:#fd0;fill-rule:evenodd;stroke-width:1.34" id="path8044" d="m 5482.1387,-6676.6631 a 30.2041,29.5 0 1,1 -60.4082,0 30.2041,29.5 0 1,1 60.4082,0 z "/>
</g>
<g id="g8046" transform="matrix(0.122338 0 0 0.0883474 274.123 1262.6)">
<path style="fill:#eeeeec" id="path8048" d="m 5422.6938,-6750.2764 c -6.33057,0.714355 -3.80469,25.5239 2.38379,47.5205 -15.123,-11.252 -32.6392,-20.0376 -40.8555,-18.5024 -9.40674,1.75732 8.55127,22.457 28.0811,37.8706 -18.8511,-0.214355 -38.186,2.96924 -43.9316,9.0415 -6.57422,6.94775 20.1021,13.0972 44.9541,14.0913 -15.3765,10.9067 -29.1479,24.8682 -30.2271,33.1572 -1.23584,9.48926 24.0151,-1.20654 44.7095,-15.0171 -6.0293,17.8623 -8.99121,37.2441 -4.99219,44.585 4.57764,8.40137 18.6836,-15.0698 27.3081,-38.4028 5.62109,17.9985 14.6382,35.3794 22.1904,38.9683 8.6416,4.10645 6.27637,-23.1616 -0.461426,-47.1079 15.124,11.252 32.6396,20.0376 40.856,18.5024 9.4082,-1.75732 -8.57861,-22.4531 -28.1123,-37.8677 18.8613,0.218262 38.2144,-2.96875 43.9634,-9.04443 6.57422,-6.94775 -20.1025,-13.0977 -44.9546,-14.0918 15.3765,-10.9062 29.1172,-24.8647 30.1963,-33.1538 1.23584,-9.48926 -23.9839,1.20312 -44.6782,15.0146 6.0293,-17.8628 8.99121,-37.2441 4.9917,-44.5854 -4.57764,-8.40137 -18.6831,15.0698 -27.3076,38.4028 -5.62158,-17.999 -14.6729,-35.4077 -22.2246,-38.9966 -0.704102,-0.334473 -1.32764,-0.447754 -1.88916,-0.384277 z "/>
<path style="fill:#fd0;fill-rule:evenodd;stroke-width:1.34" id="path8050" d="m 5482.1387,-6676.6631 a 30.2041,29.5 0 1,1 -60.4082,0 30.2041,29.5 0 1,1 60.4082,0 z "/>
</g>
<g id="g8052" transform="matrix(0.0942985 0 0 0.0680984 -121.028 1103.49)">
<path style="fill:#eeeeec" id="path8054" d="m 6967.0449,-9121.7949 c -6.33057,0.714844 -3.80518,25.5244 2.38428,47.5205 -15.124,-11.252 -32.6396,-20.0371 -40.856,-18.502 -9.40674,1.75684 8.55127,22.457 28.0815,37.8701 -18.8516,-0.214844 -38.1865,2.96875 -43.9326,9.04102 -6.57422,6.94824 20.1025,13.0977 44.9541,14.0918 -15.376,10.9072 -29.1475,24.8682 -30.2266,33.1572 -1.23535,9.48926 24.0146,-1.20606 44.7095,-15.0176 -6.02978,17.8623 -8.9917,37.2441 -4.9917,44.585 4.57715,8.40137 18.6826,-15.0693 27.3076,-38.4023 5.62109,17.999 14.6377,35.3799 22.1904,38.9688 8.64111,4.10644 6.27637,-23.1621 -0.461914,-47.1084 15.124,11.252 32.6406,20.0371 40.8564,18.5029 9.4082,-1.75781 -8.57812,-22.4541 -28.1123,-37.8682 18.8613,0.21875 38.2144,-2.96875 43.9629,-9.04394 6.57422,-6.94824 -20.1025,-13.0977 -44.9541,-14.0918 15.3765,-10.9072 29.1172,-24.8652 30.1963,-33.1543 1.23535,-9.48926 -23.9844,1.20312 -44.6787,15.0146 6.0293,-17.8633 8.99121,-37.2441 4.99219,-44.585 -4.57715,-8.40137 -18.6836,15.0693 -27.3076,38.4023 -5.62109,-17.999 -14.6729,-35.4082 -22.2246,-38.9961 -0.704102,-0.334961 -1.32812,-0.448242 -1.88916,-0.384766 z "/>
<path style="fill:#fd0;fill-rule:evenodd;stroke-width:1.34" id="path8056" d="m 7026.4897,-9048.1816 a 30.2041,29.5 0 1,1 -60.4087,0 30.2041,29.5 0 1,1 60.4087,0 z "/>
</g>
<g id="g8058" transform="matrix(0.0942985 0 0 0.0680984 -420.709 1056.33)">
<path style="fill:#eeeeec" id="path8060" d="m 6967.0449,-9121.7949 c -6.33057,0.714844 -3.80518,25.5244 2.38428,47.5205 -15.124,-11.252 -32.6396,-20.0371 -40.856,-18.502 -9.40674,1.75684 8.55127,22.457 28.0815,37.8701 -18.8516,-0.214844 -38.1865,2.96875 -43.9326,9.04102 -6.57422,6.94824 20.1025,13.0977 44.9541,14.0918 -15.376,10.9072 -29.1475,24.8682 -30.2266,33.1572 -1.23535,9.48926 24.0146,-1.20606 44.7095,-15.0176 -6.02978,17.8623 -8.9917,37.2441 -4.9917,44.585 4.57715,8.40137 18.6826,-15.0693 27.3076,-38.4023 5.62109,17.999 14.6377,35.3799 22.1904,38.9688 8.64111,4.10644 6.27637,-23.1621 -0.461914,-47.1084 15.124,11.252 32.6406,20.0371 40.8564,18.5029 9.4082,-1.75781 -8.57812,-22.4541 -28.1123,-37.8682 18.8613,0.21875 38.2144,-2.96875 43.9629,-9.04394 6.57422,-6.94824 -20.1025,-13.0977 -44.9541,-14.0918 15.3765,-10.9072 29.1172,-24.8652 30.1963,-33.1543 1.23535,-9.48926 -23.9844,1.20312 -44.6787,15.0146 6.0293,-17.8633 8.99121,-37.2441 4.99219,-44.585 -4.57715,-8.40137 -18.6836,15.0693 -27.3076,38.4023 -5.62109,-17.999 -14.6729,-35.4082 -22.2246,-38.9961 -0.704102,-0.334961 -1.32812,-0.448242 -1.88916,-0.384766 z "/>
<path style="fill:#fd0;fill-rule:evenodd;stroke-width:1.34" id="path8062" d="m 7026.4897,-9048.1816 a 30.2041,29.5 0 1,1 -60.4087,0 30.2041,29.5 0 1,1 60.4087,0 z "/>
</g>
<g id="g8064" transform="matrix(0.0942985 0 0 0.0680984 -158.489 1178.94)">
<path style="fill:#eeeeec" id="path8066" d="m 6967.0449,-9121.7949 c -6.33057,0.714844 -3.80518,25.5244 2.38428,47.5205 -15.124,-11.252 -32.6396,-20.0371 -40.856,-18.502 -9.40674,1.75684 8.55127,22.457 28.0815,37.8701 -18.8516,-0.214844 -38.1865,2.96875 -43.9326,9.04102 -6.57422,6.94824 20.1025,13.0977 44.9541,14.0918 -15.376,10.9072 -29.1475,24.8682 -30.2266,33.1572 -1.23535,9.48926 24.0146,-1.20606 44.7095,-15.0176 -6.02978,17.8623 -8.9917,37.2441 -4.9917,44.585 4.57715,8.40137 18.6826,-15.0693 27.3076,-38.4023 5.62109,17.999 14.6377,35.3799 22.1904,38.9688 8.64111,4.10644 6.27637,-23.1621 -0.461914,-47.1084 15.124,11.252 32.6406,20.0371 40.8564,18.5029 9.4082,-1.75781 -8.57812,-22.4541 -28.1123,-37.8682 18.8613,0.21875 38.2144,-2.96875 43.9629,-9.04394 6.57422,-6.94824 -20.1025,-13.0977 -44.9541,-14.0918 15.3765,-10.9072 29.1172,-24.8652 30.1963,-33.1543 1.23535,-9.48926 -23.9844,1.20312 -44.6787,15.0146 6.0293,-17.8633 8.99121,-37.2441 4.99219,-44.585 -4.57715,-8.40137 -18.6836,15.0693 -27.3076,38.4023 -5.62109,-17.999 -14.6729,-35.4082 -22.2246,-38.9961 -0.704102,-0.334961 -1.32812,-0.448242 -1.88916,-0.384766 z "/>
<path style="fill:#fd0;fill-rule:evenodd;stroke-width:1.34" id="path8068" d="m 7026.4897,-9048.1816 a 30.2041,29.5 0 1,1 -60.4087,0 30.2041,29.5 0 1,1 60.4087,0 z "/>
</g>
<g id="g8070" transform="matrix(0.0942985 0 0 0.0680984 -83.5684 1147.5)">
<path style="fill:#eeeeec" id="path8072" d="m 6967.0449,-9121.7949 c -6.33057,0.714844 -3.80518,25.5244 2.38428,47.5205 -15.124,-11.252 -32.6396,-20.0371 -40.856,-18.502 -9.40674,1.75684 8.55127,22.457 28.0815,37.8701 -18.8516,-0.214844 -38.1865,2.96875 -43.9326,9.04102 -6.57422,6.94824 20.1025,13.0977 44.9541,14.0918 -15.376,10.9072 -29.1475,24.8682 -30.2266,33.1572 -1.23535,9.48926 24.0146,-1.20606 44.7095,-15.0176 -6.02978,17.8623 -8.9917,37.2441 -4.9917,44.585 4.57715,8.40137 18.6826,-15.0693 27.3076,-38.4023 5.62109,17.999 14.6377,35.3799 22.1904,38.9688 8.64111,4.10644 6.27637,-23.1621 -0.461914,-47.1084 15.124,11.252 32.6406,20.0371 40.8564,18.5029 9.4082,-1.75781 -8.57812,-22.4541 -28.1123,-37.8682 18.8613,0.21875 38.2144,-2.96875 43.9629,-9.04394 6.57422,-6.94824 -20.1025,-13.0977 -44.9541,-14.0918 15.3765,-10.9072 29.1172,-24.8652 30.1963,-33.1543 1.23535,-9.48926 -23.9844,1.20312 -44.6787,15.0146 6.0293,-17.8633 8.99121,-37.2441 4.99219,-44.585 -4.57715,-8.40137 -18.6836,15.0693 -27.3076,38.4023 -5.62109,-17.999 -14.6729,-35.4082 -22.2246,-38.9961 -0.704102,-0.334961 -1.32812,-0.448242 -1.88916,-0.384766 z "/>
<path style="fill:#fd0;fill-rule:evenodd;stroke-width:1.34" id="path8074" d="m 7026.4897,-9048.1816 a 30.2041,29.5 0 1,1 -60.4087,0 30.2041,29.5 0 1,1 60.4087,0 z "/>
</g>
<g id="g8076" transform="matrix(0.0942985 0 0 0.0680984 -258.382 1147.5)">
<path style="fill:#eeeeec" id="path8078" d="m 6967.0449,-9121.7949 c -6.33057,0.714844 -3.80518,25.5244 2.38428,47.5205 -15.124,-11.252 -32.6396,-20.0371 -40.856,-18.502 -9.40674,1.75684 8.55127,22.457 28.0815,37.8701 -18.8516,-0.214844 -38.1865,2.96875 -43.9326,9.04102 -6.57422,6.94824 20.1025,13.0977 44.9541,14.0918 -15.376,10.9072 -29.1475,24.8682 -30.2266,33.1572 -1.23535,9.48926 24.0146,-1.20606 44.7095,-15.0176 -6.02978,17.8623 -8.9917,37.2441 -4.9917,44.585 4.57715,8.40137 18.6826,-15.0693 27.3076,-38.4023 5.62109,17.999 14.6377,35.3799 22.1904,38.9688 8.64111,4.10644 6.27637,-23.1621 -0.461914,-47.1084 15.124,11.252 32.6406,20.0371 40.8564,18.5029 9.4082,-1.75781 -8.57812,-22.4541 -28.1123,-37.8682 18.8613,0.21875 38.2144,-2.96875 43.9629,-9.04394 6.57422,-6.94824 -20.1025,-13.0977 -44.9541,-14.0918 15.3765,-10.9072 29.1172,-24.8652 30.1963,-33.1543 1.23535,-9.48926 -23.9844,1.20312 -44.6787,15.0146 6.0293,-17.8633 8.99121,-37.2441 4.99219,-44.585 -4.57715,-8.40137 -18.6836,15.0693 -27.3076,38.4023 -5.62109,-17.999 -14.6729,-35.4082 -22.2246,-38.9961 -0.704102,-0.334961 -1.32812,-0.448242 -1.88916,-0.384766 z "/>
<path style="fill:#fd0;fill-rule:evenodd;stroke-width:1.34" id="path8080" d="m 7026.4897,-9048.1816 a 30.2041,29.5 0 1,1 -60.4087,0 30.2041,29.5 0 1,1 60.4087,0 z "/>
</g>
<g id="g8082" transform="matrix(0.0942985 0 0 0.0680984 -535.586 1178.94)">
<path style="fill:#eeeeec" id="path8084" d="m 6967.0449,-9121.7949 c -6.33057,0.714844 -3.80518,25.5244 2.38428,47.5205 -15.124,-11.252 -32.6396,-20.0371 -40.856,-18.502 -9.40674,1.75684 8.55127,22.457 28.0815,37.8701 -18.8516,-0.214844 -38.1865,2.96875 -43.9326,9.04102 -6.57422,6.94824 20.1025,13.0977 44.9541,14.0918 -15.376,10.9072 -29.1475,24.8682 -30.2266,33.1572 -1.23535,9.48926 24.0146,-1.20606 44.7095,-15.0176 -6.02978,17.8623 -8.9917,37.2441 -4.9917,44.585 4.57715,8.40137 18.6826,-15.0693 27.3076,-38.4023 5.62109,17.999 14.6377,35.3799 22.1904,38.9688 8.64111,4.10644 6.27637,-23.1621 -0.461914,-47.1084 15.124,11.252 32.6406,20.0371 40.8564,18.5029 9.4082,-1.75781 -8.57812,-22.4541 -28.1123,-37.8682 18.8613,0.21875 38.2144,-2.96875 43.9629,-9.04394 6.57422,-6.94824 -20.1025,-13.0977 -44.9541,-14.0918 15.3765,-10.9072 29.1172,-24.8652 30.1963,-33.1543 1.23535,-9.48926 -23.9844,1.20312 -44.6787,15.0146 6.0293,-17.8633 8.99121,-37.2441 4.99219,-44.585 -4.57715,-8.40137 -18.6836,15.0693 -27.3076,38.4023 -5.62109,-17.999 -14.6729,-35.4082 -22.2246,-38.9961 -0.704102,-0.334961 -1.32812,-0.448242 -1.88916,-0.384766 z "/>
<path style="fill:#fd0;fill-rule:evenodd;stroke-width:1.34" id="path8086" d="m 7026.4897,-9048.1816 a 30.2041,29.5 0 1,1 -60.4087,0 30.2041,29.5 0 1,1 60.4087,0 z "/>
</g>
<g id="g8088" transform="matrix(0.0942985 0 0 0.0680984 -560.56 1116.06)">
<path style="fill:#eeeeec" id="path8090" d="m 6967.0449,-9121.7949 c -6.33057,0.714844 -3.80518,25.5244 2.38428,47.5205 -15.124,-11.252 -32.6396,-20.0371 -40.856,-18.502 -9.40674,1.75684 8.55127,22.457 28.0815,37.8701 -18.8516,-0.214844 -38.1865,2.96875 -43.9326,9.04102 -6.57422,6.94824 20.1025,13.0977 44.9541,14.0918 -15.376,10.9072 -29.1475,24.8682 -30.2266,33.1572 -1.23535,9.48926 24.0146,-1.20606 44.7095,-15.0176 -6.02978,17.8623 -8.9917,37.2441 -4.9917,44.585 4.57715,8.40137 18.6826,-15.0693 27.3076,-38.4023 5.62109,17.999 14.6377,35.3799 22.1904,38.9688 8.64111,4.10644 6.27637,-23.1621 -0.461914,-47.1084 15.124,11.252 32.6406,20.0371 40.8564,18.5029 9.4082,-1.75781 -8.57812,-22.4541 -28.1123,-37.8682 18.8613,0.21875 38.2144,-2.96875 43.9629,-9.04394 6.57422,-6.94824 -20.1025,-13.0977 -44.9541,-14.0918 15.3765,-10.9072 29.1172,-24.8652 30.1963,-33.1543 1.23535,-9.48926 -23.9844,1.20312 -44.6787,15.0146 6.0293,-17.8633 8.99121,-37.2441 4.99219,-44.585 -4.57715,-8.40137 -18.6836,15.0693 -27.3076,38.4023 -5.62109,-17.999 -14.6729,-35.4082 -22.2246,-38.9961 -0.704102,-0.334961 -1.32812,-0.448242 -1.88916,-0.384766 z "/>
<path style="fill:#fd0;fill-rule:evenodd;stroke-width:1.34" id="path8092" d="m 7026.4897,-9048.1816 a 30.2041,29.5 0 1,1 -60.4087,0 30.2041,29.5 0 1,1 60.4087,0 z "/>
</g>
<g id="g8094" transform="matrix(0.0942985 0 0 0.0680984 163.668 1116.06)">
<path style="fill:#eeeeec" id="path8096" d="m 6967.0449,-9121.7949 c -6.33057,0.714844 -3.80518,25.5244 2.38428,47.5205 -15.124,-11.252 -32.6396,-20.0371 -40.856,-18.502 -9.40674,1.75684 8.55127,22.457 28.0815,37.8701 -18.8516,-0.214844 -38.1865,2.96875 -43.9326,9.04102 -6.57422,6.94824 20.1025,13.0977 44.9541,14.0918 -15.376,10.9072 -29.1475,24.8682 -30.2266,33.1572 -1.23535,9.48926 24.0146,-1.20606 44.7095,-15.0176 -6.02978,17.8623 -8.9917,37.2441 -4.9917,44.585 4.57715,8.40137 18.6826,-15.0693 27.3076,-38.4023 5.62109,17.999 14.6377,35.3799 22.1904,38.9688 8.64111,4.10644 6.27637,-23.1621 -0.461914,-47.1084 15.124,11.252 32.6406,20.0371 40.8564,18.5029 9.4082,-1.75781 -8.57812,-22.4541 -28.1123,-37.8682 18.8613,0.21875 38.2144,-2.96875 43.9629,-9.04394 6.57422,-6.94824 -20.1025,-13.0977 -44.9541,-14.0918 15.3765,-10.9072 29.1172,-24.8652 30.1963,-33.1543 1.23535,-9.48926 -23.9844,1.20312 -44.6787,15.0146 6.0293,-17.8633 8.99121,-37.2441 4.99219,-44.585 -4.57715,-8.40137 -18.6836,15.0693 -27.3076,38.4023 -5.62109,-17.999 -14.6729,-35.4082 -22.2246,-38.9961 -0.704102,-0.334961 -1.32812,-0.448242 -1.88916,-0.384766 z "/>
<path style="fill:#fd0;fill-rule:evenodd;stroke-width:1.34" id="path8098" d="m 7026.4897,-9048.1816 a 30.2041,29.5 0 1,1 -60.4087,0 30.2041,29.5 0 1,1 60.4087,0 z "/>
</g>
<g id="g8100" transform="matrix(0.0942985 0 0 0.0478494 238.588 1077.98)">
<path style="fill:#eeeeec" id="path8102" d="m 6967.0449,-13500.4844 c -6.33057,0.714844 -3.80518,25.5244 2.38428,47.5205 -15.124,-11.252 -32.6396,-20.0371 -40.856,-18.502 -9.40674,1.75684 8.55127,22.457 28.0815,37.8701 -18.8516,-0.214844 -38.1865,2.96875 -43.9326,9.04102 -6.57422,6.94824 20.1025,13.0977 44.9541,14.0918 -15.376,10.9072 -29.1475,24.8682 -30.2266,33.1572 -1.23535,9.48926 24.0146,-1.20606 44.7095,-15.0176 -6.02978,17.8633 -8.9917,37.2441 -4.9917,44.585 4.57715,8.40234 18.6826,-15.0693 27.3076,-38.4023 5.62109,17.999 14.6377,35.3799 22.1904,38.9688 8.64111,4.10644 6.27637,-23.1621 -0.461914,-47.1084 15.124,11.252 32.6406,20.0371 40.8564,18.5029 9.4082,-1.75781 -8.57812,-22.4541 -28.1123,-37.8682 18.8613,0.21875 38.2144,-2.96875 43.9629,-9.04394 6.57422,-6.94824 -20.1025,-13.0977 -44.9541,-14.0918 15.3765,-10.9072 29.1172,-24.8652 30.1963,-33.1543 1.23535,-9.48926 -23.9844,1.20312 -44.6787,15.0146 6.0293,-17.8633 8.99121,-37.2441 4.99219,-44.585 -4.57715,-8.40137 -18.6836,15.0693 -27.3076,38.4023 -5.62109,-17.999 -14.6729,-35.4072 -22.2246,-38.9971 -0.704102,-0.333984 -1.32812,-0.447266 -1.88916,-0.383789 z "/>
<path style="fill:#fd0;fill-rule:evenodd;stroke-width:1.34" id="path8104" d="m 7026.4897,-13426.8711 a 30.2041,29.5 0 1,1 -60.4087,0 30.2041,29.5 0 1,1 60.4087,0 z "/>
</g>
<g style="fill:#304e15" id="g3871" transform="matrix(0.158771 0.088528 -0.0969825 0.275625 -381.127 1063.25)">
<path id="path3873" d="m 2269.0923,-1986.4478 c -6.33057,0.714111 -3.80518,25.5239 2.38379,47.5203 -15.1235,-11.252 -32.6392,-20.0374 -40.8557,-18.5024 -9.40625,1.7572 8.55151,22.4573 28.0815,37.8706 -18.8516,-0.214355 -38.1863,2.96924 -43.9319,9.04114 -6.57446,6.94812 20.1023,13.0977 44.9539,14.0918 -15.3757,10.9069 -29.1479,24.8682 -30.2271,33.1573 -1.23535,9.48901 24.0154,-1.20666 44.7097,-15.0176 -6.02979,17.8625 -8.99121,37.2441 -4.99219,44.5852 4.57764,8.40137 18.6831,-15.0698 27.3079,-38.4028 5.62134,17.9988 14.6384,35.3796 22.1907,38.9684 8.64111,4.10644 6.27612,-23.1619 -0.461426,-47.1082 15.124,11.2522 32.6396,20.0377 40.856,18.5028 9.4082,-1.75794 -8.57861,-22.4536 -28.1123,-37.8679 18.8613,0.218506 38.2139,-2.96875 43.9629,-9.04419 6.57471,-6.948 -20.1023,-13.0977 -44.9539,-14.0918 15.3757,-10.9065 29.1167,-24.865 30.196,-33.1541 1.23535,-9.48914 -23.9841,1.20325 -44.6785,15.0145 6.02905,-17.8627 8.99121,-37.2443 4.99145,-44.5851 -4.57739,-8.40137 -18.6829,15.0698 -27.3076,38.4026 -5.62109,-17.9988 -14.6724,-35.4077 -22.2246,-38.9966 -0.703857,-0.334351 -1.32764,-0.447632 -1.88867,-0.384033 z "/>
<path style="fill-rule:evenodd;stroke-width:1.34" id="path3875" d="m 2328.5369,-1912.8348 a 30.2041,29.5 0 1,1 -60.408,0 30.2041,29.5 0 1,1 60.408,0 z "/>
</g>
<g style="fill-rule:evenodd">
<g style="fill:#f6fbfc">
<path id="path3877" d="m 290.5219,162.179 a 71.5183,68.9115 0 1,1 -143.037,0 71.5183,68.9115 0 1,1 143.037,0 z "/>
<path id="path3879" d="m 405.3043,191.0774 a 81.2307,62.2427 0 1,1 -162.461,0 81.2307,62.2427 0 1,1 162.461,0 z "/>
<path id="path3881" d="m 513.0232,151.0642 a 138.622,73.3575 0 1,1 -277.244,0 138.622,73.3575 0 1,1 277.244,0 z "/>
<path id="path3883" d="m 361.1573,91.0445 a 68.8695,48.905 0 1,1 -137.739,0 68.8695,48.905 0 1,1 137.739,0 z "/>
<path id="path3885" d="m 445.9196,106.6052 a 45.03,42.2361 0 1,1 -90.0601,0 45.03,42.2361 0 1,1 90.0601,0 z "/>
</g>
<path style="fill:url(#linearGradient4676)" id="path4659" d="m 293.2094,75.4919 c -32.7126,0 -59.2333,17.032 -59.2333,38.0707 0,0.619583 0.021561,1.26247 0.067169,1.87485 -1.28117,-0.069458 -2.5582,-0.114746 -3.85941,-0.114746 -33.9707,0 -61.5154,24.0362 -61.5154,53.6815 0,29.6454 27.5447,53.6433 61.5154,53.6433 10.8786,0 21.1028,-2.44817 29.969,-6.77234 12.1075,14.4159 34.6307,24.1051 60.408,24.1051 25.1372,0 47.1617,-9.20776 59.4683,-23.0337 58.176,-3.79065 103.029,-27.7051 103.029,-56.6277 0,-21.6836 -25.1916,-40.5568 -62.3209,-50.238 -6.54129,-10.3031 -19.3841,-17.2944 -34.1304,-17.2944 -11.1861,0 -21.2548,4.04125 -28.3246,10.4838 -2.65891,0.058609 -5.30945,0.165375 -7.92017,0.306076 -6.83466,-16.1826 -29.8264,-28.0843 -57.1526,-28.0843 l -0,-.0001 z "/>
<path style="fill:#f6fbfc" id="path4684" d="m 1065.5079,32.4361 c -20.8129,0 -38.9441,13.3511 -48.3579,33.0785 -1.71008,-0.242294 -3.46405,-0.362061 -5.2453,-0.362061 -17.5441,0 -32.0873,12.1791 -34.7542,28.1157 -20.5004,4.95027 -35.0927,17.6542 -35.0927,32.5461 0,17.0716 19.1766,31.2504 44.4496,34.1862 0.808472,17.7651 16.2236,31.9283 35.1432,31.9283 12.6323,0 23.7068,-6.31911 29.915,-15.8044 10.1638,7.20754 24.5334,11.7149 40.4733,11.7149 18.999,0 35.7675,-6.39204 45.8372,-16.1453 8.51856,4.17842 18.6074,6.60303 29.4243,6.60303 30.5012,0 55.2279,-19.2251 55.2279,-42.9404 0,-23.7153 -24.7267,-42.9403 -55.2279,-42.9403 -4.09583,0 -8.0874,0.34346 -11.929,1.00108 -0.189697,-20.1598 -16.1005,-36.4439 -35.7186,-36.4439 -3.38037,0 -6.64636,0.502342 -9.74597,1.40574 -10.0626,-15.7433 -26.207,-25.9431 -44.3989,-25.9431 z "/>
<path style="fill:url(#linearGradient4709)" id="path4701" d="m 1072.1176,57.4611 c -17.5475,0 -32.8336,11.2563 -40.7706,27.8884 -1.44177,-0.204292 -2.92041,-0.30526 -4.42212,-0.30526 -14.7914,0 -27.0528,10.2681 -29.3012,23.7042 -17.2839,4.17352 -29.5865,14.8843 -29.5865,27.4395 0,14.393 16.1675,26.3472 37.4753,28.8222 0.681641,14.9777 13.6782,26.9187 29.629,26.9187 10.6504,0 19.9873,-5.32758 25.2214,-13.3246 8.56897,6.07658 20.684,9.87672 34.123,9.87672 16.0181,0 30.1553,-5.38908 38.6448,-13.612 7.18237,3.52289 15.6881,5.56699 24.8077,5.56699 25.7156,0 46.5619,-16.2086 46.5619,-36.2029 0,-19.9943 -20.8463,-36.2029 -46.5619,-36.2029 -3.45325,0 -6.81824,0.289543 -10.0571,0.844063 -0.159912,-16.9967 -13.5743,-30.7258 -30.1143,-30.7258 -2.8501,0 -5.60364,0.423531 -8.21692,1.1852 -8.48376,-13.2732 -22.0951,-21.8726 -37.4325,-21.8726 v 5e-05 z "/>
</g>
</g>
</svg>
